# xmcd
# 
# Track frame offsets:
#     150
#     21032
#     41793
#     60446
#     83897
#     105466
#     123969
#     152073
#     173323
#     195944
#     218213
#     242955
#     271898
#     293929
# 
# Disc length: 4228
# 
# Revision: 2
# Processed by: cddbd v1.5.2PL0 Copyright (c) Steve Scherf et al.
# Submitted via: fre:ac v1.0.31
# 
DISCID=b510820e
DTITLE=2Pac - All Eyez On Me
DYEAR=1996
DGENRE=Rap
TTITLE0=Ambitionz Az a Ridah
TTITLE1=All Bout U
TTITLE2=Skandalouz
TTITLE3=Got My Mind Made Up
TTITLE4=How Do U Want It
TTITLE5=2 of Americaz Most Wanted
TTITLE6=No More Pain
TTITLE7=Heartz of Men
TTITLE8=Life Goes On
TTITLE9=Only God Can Judge Me
TTITLE10=Tradin War Stories
TTITLE11=+California Love (RMX)
TTITLE12=I Ain't Made At Cha
TTITLE13=What'z Ya Phone #
EXTD=
EXTT0=
EXTT1=
EXTT2=
EXTT3=
EXTT4=
EXTT5=
EXTT6=
EXTT7=
EXTT8=
EXTT9=
EXTT10=
EXTT11=
EXTT12=
EXTT13=
PLAYORDER=
